<?xml version="1.0" encoding="UTF-8" standalone="no"?>
<!-- Created with Inkscape (http://www.inkscape.org/) -->

<svg
   width="700.90601"
   height="130.181"
   viewBox="0 0 185.44805 34.443722"
   version="1.1"
   id="svg1"
   xml:space="preserve"
   inkscape:export-filename="smatcher_color_500.png"
   inkscape:export-xdpi="68.482788"
   inkscape:export-ydpi="68.482788"
   sodipodi:docname="smatcher_color.svg"
   inkscape:version="1.3 (0e150ed6c4, 2023-07-21)"
   xmlns:inkscape="http://www.inkscape.org/namespaces/inkscape"
   xmlns:sodipodi="http://sodipodi.sourceforge.net/DTD/sodipodi-0.dtd"
   xmlns="http://www.w3.org/2000/svg"
   xmlns:svg="http://www.w3.org/2000/svg"><sodipodi:namedview
     id="namedview1"
     pagecolor="#505050"
     bordercolor="#eeeeee"
     borderopacity="1"
     inkscape:showpageshadow="0"
     inkscape:pageopacity="0"
     inkscape:pagecheckerboard="0"
     inkscape:deskcolor="#505050"
     inkscape:document-units="mm"
     inkscape:zoom="1.0653422"
     inkscape:cx="244.05303"
     inkscape:cy="70.869246"
     inkscape:window-width="1920"
     inkscape:window-height="991"
     inkscape:window-x="-9"
     inkscape:window-y="-9"
     inkscape:window-maximized="1"
     inkscape:current-layer="g1" /><defs
     id="defs1" /><g
     inkscape:label="Layer 1"
     inkscape:groupmode="layer"
     id="layer1"><g
       id="g1"
       transform="translate(-7.0273856,-65.138459)"
       style="fill:#008000"><path
         id="path1"
         style="fill:#008000;stroke-width:0.0471632"
         d="m 169.38771,67.488056 c -0.8007,2.091203 -1.92469,4.009411 -3.37201,5.754688 -1.44731,1.745282 -3.19595,3.231539 -5.24656,4.458418 -0.16195,0.09689 -0.3392,0.183369 -0.5317,0.259736 -0.19245,0.07645 -0.36951,0.163273 -0.53145,0.260166 -0.006,0.479871 -0.0204,0.946616 -0.0424,1.399594 -0.0223,0.452909 -0.0578,0.913571 -0.10675,1.382668 l 0.003,0.0043 c 1.04116,-0.403204 2.11876,-0.699819 3.23253,-0.889819 1.1137,-0.190013 2.22106,-0.284211 3.32111,-0.28281 1.36106,-1.766956 2.33101,-3.712491 2.91064,-5.836347 0.57965,-2.123852 0.70092,-4.294068 0.36398,-6.510697 z m 9.33478,23.043311 c -1.08716,-1.694567 -2.4374,-3.094496 -4.05101,-4.199221 -1.61363,-1.104765 -3.34635,-1.872733 -5.19803,-2.303741 -1.85173,-0.430973 -3.74043,-0.509746 -5.66582,-0.237157 -1.74606,0.247215 -3.42084,0.817208 -5.02581,1.703182 a 13.038651,10.555098 59.107944 0 1 0.17359,0.37369 c 1.25943,0.184888 2.49139,0.479075 3.69203,0.897779 1.4122,0.492494 2.75664,1.16286 4.03352,2.011056 2.07112,-0.396474 4.13373,-0.439295 6.18783,-0.129349 2.05406,0.309918 4.0053,0.937766 5.85369,1.883767 z m -24.9042,-19.669983 c -0.33898,-0.566574 -0.69963,-1.092627 -1.08173,-1.578509 -0.38205,-0.485862 -0.80192,-0.95835 -1.25979,-1.417181 0.77856,2.648587 0.83434,5.298824 0.16774,7.950972 -0.18496,0.735951 -0.42398,1.44283 -0.70687,2.125926 a 13.038651,10.555098 59.107944 0 1 4.84884,3.244938 c 0.64675,-3.604298 -0.006,-7.046803 -1.96819,-10.326146 z m 15.49751,25.902598 c -1.42061,-2.374411 -3.29597,-4.192607 -5.62651,-5.454608 -1.15603,-0.62599 -2.34451,-1.094285 -3.56527,-1.406591 a 13.038651,10.555098 59.107944 0 1 -0.55285,6.020902 c 1.45735,-0.06467 2.91167,0.07419 4.3628,0.432628 2.64411,0.653069 4.94873,1.949015 6.91448,3.887287 -0.18783,-0.620402 -0.40523,-1.213992 -0.6527,-1.780382 -0.24753,-0.56642 -0.54096,-1.132647 -0.87995,-1.699236 z" /><text
         xml:space="preserve"
         style="font-size:29.344px;font-family:Pangolin;-inkscape-font-specification:Pangolin;fill:#f9f9f9;stroke-width:0.152833"
         x="22.013866"
         y="97.653946"
         id="text2"><tspan
           sodipodi:role="line"
           id="tspan1"
           style="font-style:normal;font-variant:normal;font-weight:normal;font-stretch:normal;font-family:Pacifico;-inkscape-font-specification:Pacifico;stroke-width:0.152833"
           x="22.013866"
           y="97.653946">SMatcher</tspan></text></g></g></svg>
