<?xml version="1.0" encoding="UTF-8" standalone="no"?>
<!-- Created with Inkscape (http://www.inkscape.org/) -->

<svg
   width="700.90601"
   height="130.181"
   viewBox="0 0 185.44805 34.443722"
   version="1.1"
   id="svg1"
   xml:space="preserve"
   inkscape:export-filename="smatcher_color_2000.png"
   inkscape:export-xdpi="273.92999"
   inkscape:export-ydpi="273.92999"
   xmlns:inkscape="http://www.inkscape.org/namespaces/inkscape"
   xmlns:sodipodi="http://sodipodi.sourceforge.net/DTD/sodipodi-0.dtd"
   xmlns="http://www.w3.org/2000/svg"
   xmlns:svg="http://www.w3.org/2000/svg"><sodipodi:namedview
     id="namedview1"
     pagecolor="#505050"
     bordercolor="#eeeeee"
     borderopacity="1"
     inkscape:showpageshadow="0"
     inkscape:pageopacity="0"
     inkscape:pagecheckerboard="0"
     inkscape:deskcolor="#505050"
     inkscape:document-units="mm" /><defs
     id="defs1" /><g
     inkscape:label="Layer 1"
     inkscape:groupmode="layer"
     id="layer1"><g
       id="g1"
       transform="translate(-7.0273856,-65.138459)"
       style="fill:#008000"><path
         id="text1"
         style="font-size:35.8607px;font-family:Pangolin;-inkscape-font-specification:Pangolin;fill:#ffffff;stroke-width:0.186774"
         d="m 146.00245,71.397192 c -0.38252,0 -0.70493,0.131313 -0.9679,0.394292 -0.26301,0.262977 -0.38257,0.597652 -0.35864,1.004073 -0.14344,0.167349 -0.21549,0.394727 -0.21549,0.681612 0,0.215164 0.048,0.490057 0.14366,0.824756 -0.0956,0.334699 -0.14366,0.645357 -0.14366,0.932242 0,0.382514 0.0838,0.669157 0.25115,0.860413 -0.19126,0.310792 -0.28681,0.669482 -0.28681,1.075903 0,0.3347 0.0956,0.69339 0.28681,1.075904 -0.16735,0.262978 -0.25115,0.561886 -0.25115,0.896586 0,0.358606 0.072,0.68153 0.21549,0.968416 -0.16735,0.239071 -0.25115,0.573746 -0.25115,1.004073 0,0.454235 0.0838,0.800659 0.25115,1.03973 -0.0478,0.191257 -0.0718,0.346586 -0.0718,0.466121 0,0.191257 0.0358,0.382868 0.10749,0.574126 -0.19126,0.310792 -0.28681,0.645466 -0.28681,1.004073 0,0.454235 0.13132,0.848691 0.39429,1.18339 -0.0717,0.16735 -0.10748,0.346695 -0.10748,0.537952 0,0.215163 0.048,0.406258 0.14366,0.573608 -0.14344,0.215164 -0.21549,0.46604 -0.21549,0.752926 0,0.310792 0.10781,0.597951 0.32298,0.860929 -0.0717,0.239071 -0.10749,0.537462 -0.10749,0.896069 0,0.286885 0.0358,0.538278 0.10749,0.753443 -0.28689,0.454235 -0.43047,0.932488 -0.43047,1.434538 0,0.502048 0.15533,0.908254 0.46612,1.219047 -0.38251,0.358607 -0.57361,0.848609 -0.57361,1.470194 0,0.573771 0.14359,1.003992 0.43047,1.290877 -0.19125,0.239071 -0.28681,0.561996 -0.28681,0.968417 0,0.478142 0.13132,0.896614 0.3943,1.25522 0.28688,0.3347 0.69308,0.501778 1.21904,0.501778 0.50205,0 0.89651,-0.09555 1.18339,-0.286804 0.3108,-0.191257 0.46664,-0.490165 0.46664,-0.896586 0,-0.191256 -0.0598,-0.466149 -0.17932,-0.824756 h -5.1e-4 c 0.23907,-0.215164 0.35863,-0.47779 0.35863,-0.788582 0,-0.310792 -0.0715,-0.585685 -0.21497,-0.824756 0.11953,-0.191257 0.21508,-0.44265 0.2868,-0.753442 0.0717,-0.310793 0.10749,-0.609701 0.10749,-0.896586 0,-0.573771 -0.13131,-0.920194 -0.39429,-1.03973 0.19126,-0.310793 0.2868,-0.585685 0.2868,-0.824756 0,-0.215164 -0.024,-0.406259 -0.0718,-0.573609 0.0956,-0.286885 0.14366,-0.538277 0.14366,-0.753442 0,-0.215164 -0.024,-0.370493 -0.0718,-0.466121 0.16735,-0.286885 0.25115,-0.561778 0.25115,-0.824756 0,-0.286885 -0.0956,-0.561778 -0.28681,-0.824756 0.21516,-0.597677 0.32247,-1.051915 0.32247,-1.362708 0,-0.119535 -0.0235,-0.274864 -0.0713,-0.466121 0.23908,0 0.48995,-0.14358 0.75293,-0.430465 0.26298,-0.310792 0.41832,-0.573935 0.46612,-0.789099 0.11954,0.02391 0.32289,-0.05937 0.60978,-0.250631 0.28688,-0.191257 0.52601,-0.382868 0.71727,-0.574125 0.14344,0.04782 0.34629,0.02432 0.60927,-0.07131 0.28688,-0.119535 0.47849,-0.251366 0.57412,-0.394808 0.0478,0.02391 0.14336,0.03617 0.2868,0.03617 0.35861,0 0.65752,-0.05978 0.89659,-0.179317 0.0717,0.191257 0.21479,0.370602 0.42995,0.537952 0.21517,0.143442 0.40677,0.190957 0.57412,0.143144 -0.0956,0.191257 -0.14366,0.406367 -0.14366,0.645438 0,0.430328 0.21511,0.824784 0.64544,1.183391 -0.16735,0.167349 -0.25115,0.442242 -0.25115,0.824755 0,0.478143 0.13183,0.812817 0.39481,1.004073 -0.0956,0.119536 -0.14366,0.311148 -0.14366,0.574126 0,0.382514 0.10782,0.741204 0.32298,1.075903 -0.11953,0.119536 -0.17932,0.31063 -0.17932,0.573608 0,0.358607 0.0838,0.669265 0.25115,0.932243 -0.11953,0.191257 -0.17932,0.466149 -0.17932,0.824756 0,0.310792 0.0475,0.53817 0.14315,0.681612 -0.11954,0.239071 -0.17932,0.621261 -0.17932,1.147217 0,0.502049 0.0598,0.932787 0.17932,1.291394 -0.14344,0.382514 -0.21498,0.788719 -0.21498,1.219047 0,0.50205 0.13131,0.956287 0.39429,1.362708 -0.0239,0.310792 0.0599,0.549919 0.25115,0.717268 0.21517,0.16735 0.49006,0.251148 0.82476,0.251148 0.38251,0 0.72893,-0.09606 1.03973,-0.287321 0.33472,-0.191257 0.49057,-0.418117 0.46664,-0.681095 0.16734,-0.3347 0.25063,-0.740905 0.25063,-1.219047 0,-0.406421 -0.0715,-0.717596 -0.21498,-0.93276 0.21516,-0.262978 0.32298,-0.681451 0.32298,-1.255221 0,-0.502049 -0.0838,-0.872489 -0.25115,-1.11156 0.0956,-0.215163 0.14315,-0.669401 0.14315,-1.362707 0,-0.549864 -0.0358,-0.908554 -0.10749,-1.075904 0.16735,-0.310792 0.25115,-0.705248 0.25115,-1.18339 0,-0.406421 -0.0598,-0.765111 -0.17932,-1.075903 0.0717,-0.191257 0.10749,-0.370085 0.10749,-0.537435 0,-0.286886 -0.10731,-0.598061 -0.32246,-0.93276 0.16734,-0.286885 0.25063,-0.597543 0.25063,-0.932242 0,-0.454236 -0.14307,-0.78891 -0.42995,-1.004074 0.0239,-0.09563 0.0357,-0.226941 0.0357,-0.394291 0,-0.239071 -0.048,-0.466448 -0.14366,-0.681612 -0.0956,-0.215164 -0.21467,-0.370493 -0.35811,-0.466121 0.0717,-0.119536 0.10748,-0.250849 0.10748,-0.394291 0,-0.406421 -0.2151,-0.789128 -0.64544,-1.147734 -0.0239,-0.310792 -0.21551,-0.585685 -0.57412,-0.824756 -0.35861,-0.23907 -0.64525,-0.334617 -0.86041,-0.286804 -0.21517,-0.215164 -0.47831,-0.322978 -0.7891,-0.322978 -0.16735,0 -0.34669,0.03577 -0.53795,0.107487 -0.23908,-0.119535 -0.47821,-0.179317 -0.71727,-0.179317 -0.19126,0 -0.34659,0.03628 -0.46612,0.108004 -0.16736,-0.09563 -0.38246,-0.143661 -0.64544,-0.143661 -0.38252,0 -0.66916,0.09555 -0.86042,0.286804 -0.19126,-0.04781 -0.34658,-0.07183 -0.46612,-0.07183 -0.28688,0 -0.56229,0.0838 -0.82527,0.251148 -0.26298,0.143442 -0.44181,0.358553 -0.53743,0.645438 -0.23908,-0.04781 -0.51449,0.02423 -0.82528,0.215491 -0.31079,0.16735 -0.5259,0.406477 -0.64544,0.717269 0,-0.04781 -0.0235,-0.227159 -0.0713,-0.537952 -0.0239,-0.310793 -0.10771,-0.490138 -0.25115,-0.537951 0.14344,-0.262979 0.21498,-0.502106 0.21498,-0.717269 0,-0.382514 -0.13131,-0.669673 -0.39429,-0.86093 0.0956,-0.167349 0.14314,-0.38246 0.14314,-0.645438 0,-0.430328 -0.10729,-0.836534 -0.32246,-1.219047 0.23907,-0.525957 0.35863,-0.99246 0.35863,-1.398881 0,-0.358607 -0.0838,-0.693281 -0.25114,-1.004073 0.16735,-0.3347 0.25114,-0.716889 0.25114,-1.147217 0,-0.430328 -0.0838,-0.83705 -0.25114,-1.219564 -0.14344,-0.382514 -0.34681,-0.645139 -0.60979,-0.788582 -0.28688,-0.119536 -0.52601,-0.179318 -0.71726,-0.179318 z m -85.886234,0.824756 c -0.549864,0 -0.932053,0.107297 -1.147217,0.322461 -0.143443,-0.04781 -0.275273,-0.07131 -0.394808,-0.07131 -0.215164,0 -0.418008,0.03576 -0.609265,0.107487 -0.191257,0.07172 -0.323087,0.167269 -0.394808,0.286804 -0.215164,-0.07172 -0.466041,-0.107487 -0.752926,-0.107487 -0.382514,0 -0.728937,0.08328 -1.039729,0.250631 -0.310793,0.167349 -0.514154,0.394726 -0.609782,0.681612 -0.334699,0 -0.633608,0.09555 -0.896586,0.286804 -0.239072,0.191257 -0.382652,0.418634 -0.430465,0.681612 -0.3347,0 -0.645357,0.107297 -0.932243,0.322461 -0.286885,0.191256 -0.537762,0.430383 -0.752926,0.717269 -0.167349,0.406421 -0.251147,0.765111 -0.251147,1.075903 -0.143443,0.07172 -0.287022,0.286833 -0.430465,0.645439 -0.119536,0.358607 -0.179317,0.705031 -0.179317,1.03973 0,0.143443 0.02402,0.287022 0.07183,0.430464 -0.310792,0.286885 -0.466121,0.813171 -0.466121,1.578199 0,0.478142 0.07153,0.93238 0.214974,1.362707 0.143442,0.430328 0.322788,0.72872 0.537951,0.896069 0,0.334699 0.0838,0.621859 0.251148,0.86093 0.16735,0.215165 0.370711,0.346478 0.609782,0.394291 0.02391,0.215164 0.166969,0.406775 0.429948,0.574125 0.262978,0.143444 0.537871,0.238991 0.824756,0.286804 0.07172,0.310793 0.538225,0.466122 1.398881,0.466122 0.02391,0.119535 0.119454,0.226832 0.286804,0.322461 0.191257,0.07172 0.394618,0.108003 0.609782,0.108003 0.09563,0 0.215192,-0.02402 0.358634,-0.07183 0.191257,0.119535 0.442133,0.179317 0.752926,0.179317 0.215164,0 0.442024,-0.05978 0.681095,-0.179317 0.358606,0.239071 0.693798,0.358635 1.00459,0.358635 0.239071,0 0.430165,-0.05978 0.573608,-0.179318 0.143443,0.191258 0.322788,0.346587 0.537952,0.466122 0.215164,0.09563 0.442024,0.143144 0.681095,0.143144 0.07172,0 0.203551,-0.0235 0.394808,-0.07131 0.07172,0.310792 0.2388,0.549919 0.501779,0.717269 0.262978,0.143442 0.597652,0.203224 1.004073,0.179317 0.167349,0.215165 0.430492,0.382243 0.789099,0.501778 0,0.50205 0.215111,0.884756 0.645438,1.147734 -0.167349,0.310792 -0.251147,0.585685 -0.251147,0.824756 0,0.286885 0.09555,0.537762 0.286804,0.752925 -0.119535,0.07172 -0.226832,0.239317 -0.322461,0.502295 -0.09563,0.262979 -0.14366,0.513855 -0.14366,0.752926 0,0.143442 0.02402,0.263006 0.07183,0.358634 -0.262978,0.143443 -0.454073,0.287023 -0.573608,0.430465 -0.119536,0.119536 -0.22735,0.310631 -0.322978,0.573608 -0.239071,0.02391 -0.478198,0.143471 -0.717269,0.358635 -0.239071,0.191257 -0.454182,0.418117 -0.645439,0.681095 -0.310792,-0.09563 -0.62145,0.08372 -0.932242,0.537952 -0.286886,-0.09563 -0.490247,-0.143144 -0.609782,-0.143144 -0.239071,0 -0.465932,0.07153 -0.681096,0.214974 -0.239071,-0.310792 -0.550246,-0.466121 -0.932759,-0.466121 -0.215164,0 -0.430275,0.03576 -0.645439,0.107487 -0.02391,-0.191257 -0.15522,-0.358336 -0.394291,-0.501778 -0.239071,-0.143444 -0.489947,-0.215491 -0.752926,-0.215491 -0.16735,0 -0.322679,0.03576 -0.466121,0.107487 -0.04781,-0.382514 -0.21541,-0.717188 -0.502295,-1.004073 -0.262979,-0.310793 -0.561887,-0.466122 -0.896586,-0.466122 -0.09563,0 -0.215192,0.02402 -0.358635,0.07183 -0.02391,-0.358607 -0.190985,-0.657515 -0.501778,-0.896587 -0.286886,-0.239071 -0.60981,-0.358634 -0.968416,-0.358634 -0.07172,0 -0.203034,0.02402 -0.394291,0.07183 -0.119536,-0.04781 -0.287131,-0.07183 -0.502295,-0.07183 -0.406421,0 -0.741095,0.155329 -1.004073,0.466121 -0.239071,0.310793 -0.358635,0.657733 -0.358635,1.040247 0,0.3347 0.09555,0.633608 0.286804,0.896586 0.215164,0.262978 0.514073,0.430057 0.896586,0.501778 0.04781,0.262979 0.262925,0.526121 0.645439,0.789099 0.40642,0.262978 0.800876,0.394292 1.18339,0.394292 0.143443,0.430328 0.37082,0.753252 0.681613,0.968416 0.334699,0.191257 0.645357,0.251038 0.932242,0.179317 0.119536,0.286885 0.322897,0.513746 0.609782,0.681096 0.310793,0.167349 0.6332,0.251147 0.9679,0.251147 0.262978,0 0.502105,-0.04803 0.717269,-0.14366 0.143442,0.239071 0.406585,0.418415 0.789099,0.537951 0.406421,0.119535 0.848908,0.179317 1.327051,0.179317 0.502049,0 0.968036,-0.05978 1.398364,-0.179317 0.454235,-0.143443 0.764894,-0.322788 0.932243,-0.537951 0.382514,0.09563 0.77697,8e-5 1.18339,-0.286805 0.406422,-0.310792 0.633799,-0.62145 0.681612,-0.932243 0.382514,-0.167349 0.752954,-0.418225 1.11156,-0.752925 0.358607,-0.358607 0.573718,-0.741313 0.645439,-1.147734 0.310792,-0.09563 0.573935,-0.334754 0.789099,-0.717269 0.239071,-0.40642 0.358634,-0.812626 0.358634,-1.219047 0,-0.09563 -0.02402,-0.239207 -0.07183,-0.430464 0.191257,-0.382514 0.286804,-0.800986 0.286804,-1.255221 0,-0.645492 -0.179344,-1.087463 -0.537951,-1.326534 0.119536,-0.191257 0.179317,-0.430384 0.179317,-0.717269 0,-0.621584 -0.191094,-1.290933 -0.573608,-2.008146 -0.382514,-0.717213 -0.789237,-1.111669 -1.219564,-1.18339 -0.16735,-0.286886 -0.38246,-0.526013 -0.645439,-0.717269 -0.262978,-0.191256 -0.54962,-0.263304 -0.860412,-0.215491 0,-0.239071 -0.191095,-0.454181 -0.573609,-0.645438 -0.358606,-0.215164 -0.741312,-0.322461 -1.147733,-0.322461 -0.143443,0 -0.251256,0.01175 -0.322978,0.03566 -0.07172,-0.119536 -0.238801,-0.215083 -0.501778,-0.286804 -0.262979,-0.07172 -0.526121,-0.107487 -0.789099,-0.107487 -0.382514,0 -0.633391,0.04751 -0.752926,0.143144 -0.191257,-0.191257 -0.478416,-0.286804 -0.860929,-0.286804 -0.191258,0 -0.346587,0.03576 -0.466122,0.107487 -0.119536,-0.191257 -0.382161,-0.286805 -0.788582,-0.286805 -0.239071,0 -0.394917,0.03577 -0.466638,0.107487 -0.119536,-0.04781 -0.274865,-0.09533 -0.466122,-0.143143 -0.191256,-0.04781 -0.358335,-0.07183 -0.501778,-0.07183 -0.09563,0 -0.15541,0.01175 -0.179317,0.03566 -0.09563,-0.262978 -0.239208,-0.465822 -0.430465,-0.609265 -0.191257,-0.143442 -0.394618,-0.215491 -0.609782,-0.215491 -0.02391,-0.143442 -0.07142,-0.334537 -0.143143,-0.573608 -0.07172,-0.239071 -0.14377,-0.3944 -0.215491,-0.466121 0.02391,-0.07172 0.04792,-0.203034 0.07183,-0.394292 0.04781,-0.215163 0.07183,-0.442541 0.07183,-0.681612 0,-0.239072 -0.02402,-0.382651 -0.07183,-0.430464 0.239071,-0.143443 0.430683,-0.346288 0.574125,-0.609266 0.16735,-0.262978 0.250631,-0.502105 0.250631,-0.717268 0,-0.16735 -0.03577,-0.286914 -0.107487,-0.358635 0.239071,0 0.466448,-0.07205 0.681612,-0.215491 0.215165,-0.167349 0.394509,-0.358444 0.537952,-0.573608 0.286885,-0.04781 0.537761,-0.155111 0.752925,-0.322461 0.239071,-0.191257 0.406151,-0.418634 0.501779,-0.681612 0.191257,0.07172 0.394618,0.107487 0.609781,0.107487 0.430329,0 0.729237,-0.107297 0.896587,-0.322461 0.239071,0.119536 0.537979,0.179317 0.896586,0.179317 0.502049,0 0.836723,-0.119563 1.004073,-0.358634 0.215164,0.334699 0.525822,0.609592 0.932243,0.824756 0.430327,0.191255 0.789017,0.262787 1.075903,0.214974 -0.07172,0.549863 0.227187,1.052132 0.896586,1.506368 -0.02391,0.239071 0.07164,0.478197 0.286804,0.717268 0.215164,0.239072 0.46604,0.382135 0.752926,0.429948 0.262978,0.262979 0.574152,0.394808 0.932759,0.394808 0.382514,0 0.717188,-0.131829 1.004073,-0.394808 0.286886,-0.262978 0.418198,-0.609402 0.394292,-1.039729 -0.09563,-0.621585 -0.226942,-1.087572 -0.394292,-1.398365 -0.167349,-0.310792 -0.454508,-0.609701 -0.860929,-0.896586 0.02391,-0.286885 -0.07164,-0.585794 -0.286804,-0.896586 -0.191257,-0.3347 -0.4544,-0.597842 -0.789099,-0.789099 -0.310793,-0.191256 -0.597435,-0.262787 -0.860413,-0.214974 -0.502049,-0.836749 -1.111615,-1.255221 -1.828829,-1.255221 -0.16735,0 -0.299179,0.01175 -0.394808,0.03566 -0.310792,-0.215164 -0.76503,-0.322461 -1.362707,-0.322461 z m 56.839424,0.03566 c -0.3347,0 -0.60959,0.119563 -0.82475,0.358634 -0.21517,0.239072 -0.31072,0.597762 -0.28681,1.075904 -0.31079,0.239071 -0.46664,0.669292 -0.46664,1.290877 0,0.454235 0.0838,0.801176 0.25115,1.040247 -0.19126,0.02391 -0.2868,0.250767 -0.2868,0.681095 0,0.358607 0.048,0.645766 0.14366,0.860929 -0.11954,-0.02391 -0.27487,0.01186 -0.46612,0.107487 -0.16735,0.07172 -0.26342,0.155519 -0.28733,0.251148 -0.19125,-0.119535 -0.45388,-0.179317 -0.78858,-0.179317 -0.38251,0 -0.72945,0.05978 -1.04024,0.179317 -0.35861,-0.239071 -0.77708,-0.358635 -1.25523,-0.358635 -0.23907,0 -0.50169,0.05978 -0.78858,0.179318 -0.43033,0.02391 -0.75325,0.166969 -0.96841,0.429947 -0.23908,0.239072 -0.35864,0.53798 -0.35864,0.896587 0,0.406421 0.13131,0.77686 0.39429,1.11156 0.23907,0.310792 0.55025,0.466638 0.93276,0.466638 0.26298,0 0.51386,-0.07205 0.75293,-0.215491 0.45423,0.262979 0.89672,0.394808 1.32705,0.394808 0.21516,0 0.46604,-0.03628 0.75292,-0.108004 0.19126,0.16735 0.49017,0.251148 0.89659,0.251148 0.26298,0 0.50211,-0.03577 0.71727,-0.107487 -0.0717,0.215164 -0.10749,0.418525 -0.10749,0.609782 0,0.358607 0.13132,0.69328 0.39429,1.004073 -0.11953,0.119535 -0.22735,0.29888 -0.32297,0.537951 -0.0717,0.215165 -0.10749,0.466041 -0.10749,0.752926 0,0.3347 0.0715,0.645358 0.21497,0.932243 -0.21516,0.215164 -0.32246,0.514072 -0.32246,0.896586 0,0.286885 0.0715,0.573528 0.21498,0.860413 -0.0956,0.239071 -0.14315,0.442432 -0.14315,0.609781 0,0.454235 0.14306,0.824675 0.42995,1.111561 -0.26298,0.262978 -0.39429,0.597652 -0.39429,1.004073 0,0.454235 0.16759,0.812925 0.50229,1.075903 -0.0478,0.3347 -0.0718,0.609592 -0.0718,0.824756 0,0.573771 0.15533,1.004508 0.46612,1.291394 -0.0478,0.310792 -0.012,0.609184 0.10749,0.896069 0.14344,0.286885 0.35856,0.502512 0.64544,0.645956 0.0478,0.310792 0.20314,0.609184 0.46612,0.896069 -0.0956,0.478142 0.0239,0.884864 0.35864,1.219564 0.3586,0.3347 0.70554,0.525795 1.04024,0.573608 0,0.16735 0.16708,0.358445 0.50178,0.573609 0.3347,0.191257 0.62186,0.310821 0.86093,0.358634 0.35861,0.310792 0.75306,0.466638 1.18339,0.466638 0.31079,0 0.56167,-0.0838 0.75293,-0.251147 0.6933,0.07172 1.29112,-0.107624 1.79317,-0.537952 0.3347,-0.09563 0.58557,-0.250958 0.75292,-0.466121 0.16735,-0.239072 0.25115,-0.513964 0.25115,-0.824756 0,-0.406421 -0.13131,-0.753361 -0.39429,-1.040247 -0.23907,-0.310792 -0.56199,-0.466121 -0.96842,-0.466121 -0.14344,0 -0.263,0.01175 -0.35863,0.03566 -0.14344,0.02391 -0.27476,0.06019 -0.39429,0.108004 -0.0956,0.04781 -0.15541,0.131096 -0.17932,0.250631 -0.19126,-0.04781 -0.32309,-0.07131 -0.39481,-0.07131 -0.11953,0 -0.27486,0.0235 -0.46612,0.07131 -0.21516,-0.215164 -0.5018,-0.322461 -0.86041,-0.322461 l -0.25115,0.03566 c -0.0239,-0.02391 -0.0597,-0.04792 -0.10749,-0.07183 -0.0478,-0.02391 -0.0958,-0.07142 -0.14366,-0.143143 0,-0.621585 -0.23912,-1.064073 -0.71726,-1.327051 0,-0.430328 -0.20285,-0.800768 -0.60927,-1.11156 0,-0.310792 -0.14358,-0.633717 -0.43046,-0.968416 0.0239,-0.143443 0.0597,-0.322788 0.10748,-0.537952 0.0717,-0.239071 0.10749,-0.430166 0.10749,-0.573608 0,-0.262978 -0.0838,-0.513855 -0.25115,-0.752926 0.0717,-0.191257 0.10801,-0.430384 0.10801,-0.717269 0,-0.669399 -0.11957,-1.135386 -0.35864,-1.398364 0.21517,-0.262978 0.32246,-0.574153 0.32246,-0.93276 0,-0.430327 -0.14358,-0.740986 -0.43046,-0.932243 0.21516,-0.334699 0.32298,-0.693389 0.32298,-1.075903 0,-0.430328 -0.10782,-0.789018 -0.32298,-1.075903 0.28688,-0.286885 0.43046,-0.609293 0.43046,-0.9679 0,-0.3347 -0.10729,-0.645874 -0.32246,-0.93276 0.26298,0.16735 0.48984,0.251148 0.6811,0.251148 0.14344,0 0.37082,-0.05978 0.68161,-0.179317 0.23907,0.16735 0.53798,0.251147 0.89659,0.251147 0.38251,0 0.69317,-0.09555 0.93224,-0.286804 0.21516,0.143443 0.43027,0.214974 0.64544,0.214974 0.38251,0 0.71718,-0.167079 1.00407,-0.501778 0.31079,-0.358607 0.46612,-0.729563 0.46612,-1.112077 0,-0.310793 -0.11956,-0.561669 -0.35863,-0.752926 -0.21517,-0.215163 -0.54984,-0.322461 -1.00408,-0.322461 -0.19125,-0.262978 -0.4544,-0.394808 -0.7891,-0.394808 -0.23907,0 -0.44191,0.05978 -0.60926,0.179318 -0.14344,-0.191257 -0.33505,-0.286805 -0.57413,-0.286805 -0.14344,0 -0.33453,0.05978 -0.5736,0.179318 -0.19126,-0.16735 -0.46615,-0.251148 -0.82476,-0.251148 -0.23907,0 -0.46645,0.03628 -0.68161,0.108004 0.11953,-0.40642 0.17931,-0.729345 0.17931,-0.968416 0,-0.286886 -0.0715,-0.47798 -0.21497,-0.573609 0.0956,-0.119535 0.16716,-0.287131 0.21497,-0.502295 0.0717,-0.239071 0.10801,-0.465931 0.10801,-0.681095 0,-0.502049 -0.11956,-0.860739 -0.35864,-1.075903 0.19126,-0.310793 0.28681,-0.585685 0.28681,-0.824756 0,-0.358607 -0.14358,-0.645766 -0.43047,-0.86093 -0.28688,-0.239071 -0.59754,-0.358634 -0.93224,-0.358634 z m -25.891442,0.286804 c -0.215164,0 -0.382759,0.02402 -0.502295,0.07183 -0.645492,0 -1.123229,0.191095 -1.434021,0.573609 -0.286885,0.382513 -0.430465,0.836751 -0.430465,1.362707 -0.310792,0.191257 -0.585685,0.549948 -0.824756,1.075904 -0.215164,0.525956 -0.322978,1.039976 -0.322978,1.542024 0,0.310793 0.05978,0.562186 0.179318,0.753443 -0.286885,0 -0.537762,0.143063 -0.752926,0.429948 -0.191256,0.262978 -0.286804,0.609918 -0.286804,1.040246 -0.430328,0.215164 -0.705221,0.573854 -0.824756,1.075904 -0.09563,0.478142 -0.143661,1.075442 -0.143661,1.792655 -0.334699,0.191257 -0.597842,0.502431 -0.789099,0.93276 -0.167349,0.430327 -0.25063,0.848282 -0.25063,1.254703 0,0.239072 0.03577,0.430683 0.107487,0.574126 -0.741121,0.812841 -1.11156,1.48219 -1.11156,2.008146 0,0.16735 0.05978,0.370194 0.179317,0.609265 -0.239071,0 -0.454182,0.167595 -0.645439,0.502295 -0.16735,0.334699 -0.251147,0.681123 -0.251147,1.03973 0,0.09563 0.02402,0.239207 0.07183,0.430464 -0.406422,0.215164 -0.633799,0.848747 -0.681612,1.900659 -0.09563,-0.382513 -0.215191,-0.669155 -0.358635,-0.860412 -0.119535,-0.191257 -0.322896,-0.394618 -0.609782,-0.609782 0.02391,-0.09563 0.03617,-0.239208 0.03617,-0.430465 0,-0.478142 -0.107814,-0.968145 -0.322978,-1.470194 -0.215164,-0.525956 -0.442024,-0.87238 -0.681095,-1.03973 0.07172,-0.262978 0.107487,-0.550137 0.107487,-0.860929 0,-0.406421 -0.05978,-0.800877 -0.179317,-1.183391 -0.09563,-0.382513 -0.226942,-0.657406 -0.394292,-0.824756 0,-0.286885 -0.107813,-0.645575 -0.322977,-1.075903 -0.191257,-0.454235 -0.418117,-0.753143 -0.681096,-0.896586 0.09563,-0.09563 0.143144,-0.238691 0.143144,-0.429948 0,-0.239071 -0.05978,-0.454699 -0.179317,-0.645955 -0.09563,-0.215165 -0.202926,-0.322461 -0.322461,-0.322461 0.09563,-0.262978 0.143144,-0.53787 0.143144,-0.824756 0,-0.310792 -0.07153,-0.609701 -0.214974,-0.896586 -0.119536,-0.310793 -0.274865,-0.549919 -0.466122,-0.717269 0,-0.286886 -0.09555,-0.585794 -0.286804,-0.896586 -0.16735,-0.310793 -0.394727,-0.477872 -0.681612,-0.501778 0.07172,-0.191257 0.107487,-0.382868 0.107487,-0.574125 0,-0.262978 -0.05978,-0.513855 -0.179317,-0.752926 -0.119536,-0.262979 -0.263115,-0.466339 -0.430465,-0.609782 0,-0.454235 -0.202844,-0.896206 -0.609265,-1.326534 -0.382514,-0.430328 -0.812735,-0.645439 -1.290877,-0.645439 -0.358607,-0.358606 -0.789346,-0.537951 -1.291394,-0.537951 -0.430329,0 -0.812518,0.143063 -1.147217,0.429948 -0.334699,0.286885 -0.502295,0.657842 -0.502295,1.112076 -0.143443,0.143443 -0.263007,0.442352 -0.358635,0.896587 -0.09563,0.430328 -0.143143,0.884565 -0.143143,1.362707 0,1.028006 0.167078,1.709103 0.501778,2.043803 -0.358607,0.358606 -0.537952,0.956423 -0.537952,1.793172 0,0.645492 0.119564,1.171261 0.358635,1.577682 -0.143443,0.215164 -0.214974,0.538088 -0.214974,0.968416 0,0.286886 0.03577,0.561778 0.107487,0.824756 0.07172,0.262978 0.167268,0.478089 0.286804,0.645438 -0.239071,0.239072 -0.358635,0.645277 -0.358635,1.219047 0,0.549864 0.119564,1.100166 0.358635,1.650029 -0.09563,0.119535 -0.179426,0.322379 -0.251148,0.609265 -0.07172,0.262978 -0.107487,0.550136 -0.107487,0.860929 0,0.669399 0.119564,1.159403 0.358635,1.470195 -0.215165,0.430328 -0.322461,1.039894 -0.322461,1.828829 0,0.860656 0.143062,1.78088 0.429948,2.761072 -0.215165,0.502049 -0.322461,0.956286 -0.322461,1.362707 0,0.549864 0.167078,0.992351 0.501778,1.327051 0.3347,0.3347 0.717406,0.502295 1.147734,0.502295 0.430328,0 0.789018,-0.167595 1.075903,-0.502295 0.310793,-0.3347 0.466121,-0.812953 0.466121,-1.434538 0,-0.239071 -0.01175,-0.430166 -0.03566,-0.573608 0.239071,-0.16735 0.358634,-0.657353 0.358634,-1.470195 0,-0.430327 -0.03628,-0.824783 -0.108004,-1.18339 -0.07172,-0.382514 -0.155002,-0.62164 -0.25063,-0.717269 0.191256,-0.454235 0.286804,-0.860957 0.286804,-1.219564 0,-0.40642 -0.09555,-0.812626 -0.286804,-1.219047 0.239071,-0.549863 0.358634,-1.267243 0.358634,-2.151806 0,-0.788935 -0.119563,-1.374485 -0.358634,-1.756999 0.09563,-0.215164 0.143143,-0.573855 0.143143,-1.075903 0,-0.549864 -0.05978,-1.087899 -0.179317,-1.613855 -0.119535,-0.549864 -0.286614,-0.920303 -0.501778,-1.11156 0.215164,-0.215164 0.382243,-0.537572 0.501778,-0.9679 0.143442,-0.454236 0.191474,-0.908473 0.143661,-1.362707 0.239071,0.597678 0.525713,0.896069 0.860412,0.896069 0,0.956284 0.155329,1.589866 0.466122,1.900659 0,0.262978 0.09606,0.609918 0.287321,1.040247 0.215164,0.430327 0.442024,0.740985 0.681095,0.932242 -0.119536,0.119536 -0.179317,0.298881 -0.179317,0.537952 0,0.406421 0.107814,0.824892 0.322977,1.255221 0.239072,0.406421 0.513964,0.621532 0.824756,0.645438 -0.191256,0.358607 -0.286804,0.777079 -0.286804,1.255221 0,0.454235 0.08328,0.884456 0.250631,1.290877 0.191256,0.406421 0.382868,0.681313 0.574125,0.824756 -0.07172,0.239071 -0.03596,0.597761 0.107487,1.075903 0.143442,0.454235 0.334537,0.872707 0.573608,1.255221 0.239071,0.358606 0.466448,0.537951 0.681612,0.537951 0,0.478143 0.09555,0.93238 0.286805,1.362708 0.215163,0.40642 0.442024,0.609265 0.681095,0.609265 -0.02391,0.09563 -0.03566,0.250957 -0.03566,0.466122 0,0.454234 0.14358,0.812924 0.430465,1.075903 0.286885,0.239071 0.621559,0.358634 1.004073,0.358634 0.406421,0 0.764594,-0.131312 1.075387,-0.394291 0.310792,-0.262978 0.466638,-0.621668 0.466638,-1.075903 0.286885,-0.262979 0.513745,-0.537871 0.681095,-0.824756 0.16735,-0.286886 0.251148,-0.645576 0.251148,-1.075903 0.167349,-0.16735 0.298662,-0.394211 0.394291,-0.681096 0.119535,-0.310793 0.179317,-0.633717 0.179317,-0.968416 0,-0.286886 -0.03577,-0.550028 -0.107487,-0.789099 0.215164,0 0.430274,-0.167079 0.645439,-0.501778 0.239071,-0.358607 0.358634,-0.681532 0.358634,-0.968417 0.191257,0 0.382351,-0.346423 0.573609,-1.03973 0.191256,-0.717213 0.28732,-1.339046 0.28732,-1.865002 0.597679,-0.262978 0.89607,-1.183203 0.89607,-2.761072 0.502049,-0.358606 0.896504,-1.027954 1.18339,-2.008146 0.286885,-1.004098 0.430465,-1.817026 0.430465,-2.438611 0,0.239071 -0.02402,0.501698 -0.07183,0.788583 -0.04781,0.262978 -0.07131,0.478605 -0.07131,0.645955 0,0.215164 0.04752,0.382243 0.143144,0.501778 -0.3347,0.310793 -0.501778,0.741013 -0.501778,1.290877 0,0.621585 0.167078,1.159621 0.501778,1.613855 -0.239071,0.215164 -0.358635,0.717434 -0.358635,1.506368 0,0.788935 0.119564,1.422001 0.358635,1.900143 -0.239071,0.215164 -0.358635,0.621886 -0.358635,1.219564 0,0.597678 0.119564,1.135712 0.358635,1.613855 -0.239071,0.239071 -0.358635,0.561479 -0.358635,0.967899 0,0.430328 0.119564,0.765002 0.358635,1.004073 -0.310793,0.310793 -0.466122,0.813062 -0.466122,1.506368 0,0.693307 0.155329,1.314623 0.466122,1.864486 -0.07172,0.215164 -0.107487,0.430792 -0.107487,0.645955 0,0.406421 0.131313,0.728829 0.394291,0.9679 0.262978,0.239071 0.561886,0.358634 0.896586,0.358634 0.382514,0 0.717187,-0.143579 1.004073,-0.430464 0.286885,-0.286886 0.430465,-0.704841 0.430465,-1.254704 0,-0.358606 -0.07153,-0.765328 -0.214974,-1.219564 0.262978,-0.40642 0.394291,-0.967955 0.394291,-1.685168 0,-0.382515 -0.03577,-0.729455 -0.107487,-1.040247 -0.07172,-0.310792 -0.167269,-0.525903 -0.286804,-0.645439 0.215164,-0.286885 0.322461,-0.788637 0.322461,-1.505851 0,-0.74112 -0.107297,-1.219374 -0.322461,-1.434538 0.16735,-0.191257 0.298663,-0.466148 0.394291,-0.824755 0.119535,-0.382514 0.179317,-0.76522 0.179317,-1.147734 0,-0.3347 -0.04803,-0.633608 -0.14366,-0.896586 0.286886,-0.430328 0.430465,-0.956097 0.430465,-1.577682 0,-0.621584 -0.15533,-1.135603 -0.466122,-1.542024 0.239071,-0.286886 0.358635,-0.717107 0.358635,-1.290878 0,-0.549863 -0.107814,-0.944319 -0.322978,-1.18339 0.215164,-0.502049 0.322978,-0.968553 0.322978,-1.398881 0,-0.454235 -0.107814,-0.800659 -0.322978,-1.03973 0.215164,-0.765027 0.322978,-1.327078 0.322978,-1.685685 0,-0.382514 -0.107814,-0.944048 -0.322978,-1.685168 0,-0.334699 -0.119564,-0.705656 -0.358635,-1.112077 -0.215163,-0.430328 -0.561587,-0.645439 -1.039729,-0.645439 z m 89.400742,5.020882 c -0.31079,0 -0.57393,0.107297 -0.7891,0.322461 -0.21513,0.215165 -0.3347,0.490057 -0.35863,0.824756 -0.35861,0.119536 -0.53795,0.430193 -0.53795,0.932243 0,0.382514 0.0838,0.741204 0.25114,1.075903 -0.16734,0.406421 -0.25114,0.729346 -0.25114,0.968417 0,0.310792 0.14358,0.6097 0.43046,0.896586 -0.21516,0.310792 -0.32298,0.645467 -0.32298,1.004073 0,0.215164 0.0598,0.46604 0.17932,0.752925 -0.16735,0.262979 -0.25063,0.537871 -0.25063,0.824756 0,0.262979 0.0593,0.526121 0.1788,0.789099 0.11953,0.239071 0.26311,0.430166 0.43046,0.573609 -0.16735,0.239071 -0.25114,0.573745 -0.25114,1.004073 0,0.621585 0.13183,1.099838 0.39481,1.434538 -0.0478,0.09563 -0.0718,0.263223 -0.0718,0.502295 0,0.167349 0.0122,0.286913 0.0362,0.358634 -0.3347,0.286885 -0.5023,0.657325 -0.5023,1.11156 0,0.358606 0.10781,0.669265 0.32298,0.932243 -0.0956,0.286885 -0.14366,0.550028 -0.14366,0.789099 0,0.239071 0.0358,0.454182 0.10749,0.645439 0.0717,0.191256 0.17954,0.334836 0.32298,0.430464 -0.11954,0.191257 -0.17932,0.429867 -0.17932,0.716752 0,0.358607 0.0715,0.705548 0.21497,1.040247 -0.14344,0.358607 -0.21497,0.681531 -0.21497,0.968416 0,0.454236 0.14306,0.812409 0.42995,1.075387 0.28688,0.239071 0.62207,0.358634 1.00459,0.358634 0.43032,0 0.7885,-0.143062 1.07538,-0.429948 0.3108,-0.310792 0.41861,-0.729263 0.32298,-1.25522 0.21517,-0.286885 0.32246,-0.597543 0.32246,-0.932243 0,-0.239071 -0.0598,-0.478198 -0.17932,-0.717269 0.14344,-0.262978 0.21549,-0.550136 0.21549,-0.860929 0,-0.40642 -0.0838,-0.800876 -0.25114,-1.18339 0.16734,-0.239072 0.25114,-0.525714 0.25114,-0.860413 0,-0.286886 -0.072,-0.550028 -0.21549,-0.789099 0.16735,-0.3347 0.25115,-0.597843 0.25115,-0.789099 0,-0.143443 -0.0598,-0.358553 -0.17932,-0.645439 0.11954,-0.286885 0.17932,-0.513745 0.17932,-0.681095 0,-0.09563 -0.024,-0.239209 -0.0718,-0.430465 -0.0478,-0.119536 -0.11935,-0.250849 -0.21497,-0.394291 -0.0717,-0.143443 -0.14326,-0.263006 -0.21498,-0.358635 0.19126,-0.215163 0.28681,-0.526338 0.28681,-0.932759 0,-0.454235 -0.0956,-0.908472 -0.28681,-1.362708 0.19126,-0.143442 0.34659,-0.358553 0.46612,-0.645438 0.14345,-0.310793 0.21498,-0.62145 0.21498,-0.932243 0,-0.167349 -0.0117,-0.286913 -0.0357,-0.358635 0.59768,0 0.96812,-0.167078 1.11156,-0.501778 0.38251,0.02391 0.74121,-0.07216 1.07591,-0.287321 0.23906,0.119536 0.46592,0.179317 0.68109,0.179317 0.0956,0 0.21519,-0.0235 0.35863,-0.07131 0.14344,0.167351 0.28702,0.274648 0.43047,0.322461 0.14344,0.04781 0.3468,0.07183 0.60978,0.07183 0.31079,0.478142 0.69299,0.717269 1.14722,0.717269 0.40642,0 0.77686,-0.167595 1.11156,-0.502295 0.3586,-0.358606 0.53795,-0.740796 0.53795,-1.147217 0,-0.478142 -0.22686,-0.860848 -0.6811,-1.147733 -0.16735,-0.382514 -0.39473,-0.633391 -0.68161,-0.752926 -0.28688,-0.119535 -0.62156,-0.167567 -1.00407,-0.14366 -0.26298,-0.310792 -0.68093,-0.442105 -1.2547,-0.394292 -0.3347,-0.40642 -0.64588,-0.609781 -0.93276,-0.609781 -0.19126,0 -0.38235,0.04803 -0.57361,0.14366 -0.0717,-0.04781 -0.20303,-0.07183 -0.39429,-0.07183 -0.26298,0 -0.53787,0.05978 -0.82476,0.179317 -0.26299,0.119536 -0.41884,0.239099 -0.46664,0.358634 -0.28688,0 -0.502,0.02402 -0.64544,0.07183 -0.14344,0.04781 -0.263,0.131095 -0.35863,0.25063 -0.0956,0.09563 -0.19117,0.167678 -0.2868,0.215491 0.0239,-0.16735 0.0362,-0.38246 0.0362,-0.645439 0,-0.645492 -0.14358,-1.135494 -0.43047,-1.470194 -0.26298,-0.358606 -0.57363,-0.537952 -0.93224,-0.537952 z m -46.69069,0.752926 c -0.28688,0 -0.55003,0.0838 -0.7891,0.251147 -0.31079,-0.02391 -0.65721,0.02361 -1.03973,0.143144 -0.3586,0.119536 -0.64576,0.322897 -0.86093,0.609782 -0.47814,-0.07172 -0.95587,0.251203 -1.43402,0.968416 -0.40642,-0.02391 -0.80087,0.119156 -1.18339,0.429948 -0.3586,0.286886 -0.58598,0.59806 -0.68161,0.93276 -0.23907,0.07172 -0.48995,0.274565 -0.75292,0.609265 -0.23908,0.310792 -0.35864,0.657733 -0.35864,1.040247 0,0.215163 0.024,0.382242 0.0718,0.501778 -0.28688,0.167349 -0.52601,0.442241 -0.71727,0.824756 -0.19125,0.358606 -0.2868,0.741312 -0.2868,1.147733 0,0.119536 0.0235,0.298881 0.0713,0.537952 -0.3347,0.502049 -0.50178,1.147381 -0.50178,1.936316 0,0.860656 0.20336,1.697599 0.60979,2.510441 -0.0239,0.07172 -0.0362,0.191284 -0.0362,0.358634 0,0.239071 0.0358,0.478198 0.10749,0.717269 0.0717,0.239071 0.17953,0.418416 0.32298,0.537952 0.26297,1.362704 0.75298,2.199132 1.47019,2.509924 0.0717,0.430328 0.3226,0.813034 0.75293,1.147734 0.45423,0.310791 0.90847,0.442104 1.3627,0.394291 0.14345,0.286885 0.39484,0.537762 0.75345,0.752926 0.38251,0.191257 0.7647,0.28732 1.14721,0.28732 0.21517,0 0.46656,-0.05978 0.75345,-0.179317 0.31079,0.310793 0.69298,0.466122 1.14721,0.466122 0.19126,0 0.3706,-0.03577 0.53795,-0.107487 0.19126,0.16735 0.52594,0.25063 1.00408,0.25063 0.38251,0 0.75295,-0.05978 1.11156,-0.179317 0.3586,-0.143443 0.64576,-0.346287 0.86093,-0.609265 0.23907,0.02391 0.56199,-0.03587 0.96841,-0.179317 0.40642,-0.16735 0.71708,-0.334946 0.93224,-0.502295 0.23906,-0.167351 0.26309,-0.274648 0.0718,-0.322461 0.0956,0.02391 0.25096,0.03566 0.46613,0.03566 0.54986,0 1.03986,-0.167079 1.47019,-0.501778 0.45423,-0.358607 0.6811,-0.801094 0.6811,-1.327051 0,-0.454235 -0.16708,-0.836941 -0.50178,-1.147734 -0.3347,-0.310792 -0.72916,-0.466121 -1.18339,-0.466121 -0.52596,0 -0.94443,0.191095 -1.25522,0.573608 -0.0717,-0.02391 -0.20304,-0.03566 -0.39429,-0.03566 -0.28689,0 -0.56178,0.05978 -0.82476,0.179318 -0.23907,0.119535 -0.43069,0.29888 -0.57413,0.537951 -0.23907,-0.02391 -0.54973,0.07164 -0.93224,0.286805 -0.38251,0.215163 -0.62164,0.418524 -0.71727,0.609781 -0.26298,-0.239071 -0.57363,-0.358634 -0.93224,-0.358634 -0.16735,0 -0.31093,0.01175 -0.43046,0.03566 -0.14345,-0.239071 -0.35856,-0.430165 -0.64544,-0.573609 -0.26298,-0.143442 -0.53787,-0.214974 -0.82476,-0.214974 -0.31079,0 -0.59795,0.107298 -0.86093,0.322461 0,-0.310792 -0.20284,-0.645466 -0.60926,-1.004073 -0.38252,-0.358607 -0.87252,-0.633499 -1.4702,-0.824756 0,-0.262978 -0.072,-0.53787 -0.21549,-0.824756 -0.11953,-0.286885 -0.26311,-0.490246 -0.43046,-0.609781 0.0239,-0.07172 0.0362,-0.191285 0.0362,-0.358635 0,-0.286886 -0.048,-0.573527 -0.14366,-0.860412 -0.0717,-0.310793 -0.16727,-0.549919 -0.2868,-0.717269 0.3347,-0.765028 0.50229,-1.422626 0.50229,-1.97249 0,-0.310792 -0.0598,-0.645466 -0.17932,-1.004073 l 0.3943,-0.394291 c 0.19125,-0.191256 0.35885,-0.394618 0.50229,-0.609782 0.14344,-0.215164 0.21497,-0.46604 0.21497,-0.752926 0,-0.143442 -0.0118,-0.251256 -0.0357,-0.322977 0.40642,0.04781 0.72883,-0.03547 0.9679,-0.250631 0.23907,-0.239071 0.51396,-0.574262 0.82475,-1.00459 0.59768,0 1.05192,-0.23861 1.36271,-0.716752 0.23907,0.16735 0.49047,0.250631 0.75344,0.250631 0.26298,0 0.50159,-0.107297 0.71675,-0.322461 0.0956,0.02391 0.27498,0.03566 0.53796,0.03566 0.28688,0 0.46623,-0.01175 0.53795,-0.03566 0.16735,0.215164 0.39473,0.418008 0.68161,0.609265 0.28689,0.167351 0.58579,0.275164 0.89659,0.322978 0.11954,0.525956 0.37041,0.968444 0.75292,1.32705 0.40642,0.358607 0.8249,0.537952 1.25522,0.537952 0.26298,0 0.51385,-0.0838 0.75293,-0.251147 0.3586,-0.262978 0.53795,-0.633418 0.53795,-1.11156 0,-0.286886 -0.0838,-0.62156 -0.25115,-1.004073 -0.16735,-0.430328 -0.45399,-0.741503 -0.86041,-0.93276 0.0239,-0.16735 -0.0481,-0.406477 -0.21549,-0.717269 -0.14344,-0.3347 -0.3703,-0.621341 -0.6811,-0.860413 -0.28688,-0.262977 -0.63382,-0.394291 -1.04024,-0.394291 -0.0478,-0.191257 -0.17913,-0.347102 -0.3943,-0.466638 -0.21516,-0.143441 -0.41852,-0.190957 -0.60978,-0.143144 -0.0717,-0.09563 -0.21478,-0.179426 -0.42995,-0.251147 -0.21516,-0.07172 -0.44254,-0.107487 -0.68161,-0.107487 -0.3347,0 -0.59784,0.07153 -0.7891,0.214974 -0.28688,-0.143443 -0.57353,-0.214974 -0.86041,-0.214974 z m 35.68154,0.03566 c -0.40642,0 -0.71759,0.119563 -0.93276,0.358634 -0.57377,0.119536 -0.95596,0.334646 -1.14721,0.645439 -0.21517,-0.07172 -0.53809,-0.02369 -0.96842,0.14366 -0.40643,0.143443 -0.63329,0.346804 -0.68109,0.609782 -0.35861,-0.04781 -0.77708,0.119265 -1.25522,0.501778 -0.47814,0.382515 -0.71727,0.77697 -0.71727,1.183391 -1.0041,0.239071 -1.50637,0.825137 -1.50637,1.757515 l 0.0362,0.394291 c -0.21516,0.04781 -0.43028,0.203144 -0.64544,0.466122 -0.19126,0.239071 -0.34658,0.513963 -0.46612,0.824756 -0.11952,0.286885 -0.1558,0.490246 -0.108,0.609781 -0.14345,0.119536 -0.29878,0.370412 -0.46612,0.752926 -0.16736,0.382514 -0.25115,0.76522 -0.25115,1.147734 0,0.310793 0.072,0.597434 0.21549,0.860412 -0.19126,0.382514 -0.2868,0.812735 -0.2868,1.290877 0,0.478143 0.0955,1.004428 0.2868,1.578199 -0.0239,0.04781 -0.0362,0.143361 -0.0362,0.286804 0,0.191256 0.024,0.382351 0.0718,0.573608 0.0717,0.16735 0.15552,0.262898 0.25114,0.286805 -0.0239,0.167349 -0.0239,0.346694 0,0.537951 0.14345,0.573771 0.48987,0.968227 1.03973,1.18339 0.0478,0.310793 0.27519,0.681749 0.68162,1.112077 0.43032,0.406421 0.81251,0.609265 1.14721,0.609265 0.43033,0.836749 1.25552,1.219455 2.47479,1.147734 0.28688,0.239071 0.59754,0.358634 0.93224,0.358634 0.16735,0 0.33443,-0.03576 0.50178,-0.107487 0.19126,0.191257 0.5382,0.286805 1.04024,0.286805 0.54987,0 0.96834,-0.119564 1.25523,-0.358635 0.14344,0.04781 0.35855,0.07183 0.64543,0.07183 0.62159,0 1.11159,-0.21511 1.4702,-0.645438 0.19126,0 0.40637,-0.04803 0.64544,-0.143661 0.23907,-0.09563 0.50221,-0.226941 0.7891,-0.394291 0.28688,-0.191257 0.49025,-0.323087 0.60978,-0.394808 0.52596,-0.334699 0.78858,-0.788937 0.78858,-1.362707 0,-0.262978 -0.0475,-0.489839 -0.14314,-0.681096 -0.28689,-0.525956 -0.7534,-0.789099 -1.39888,-0.789099 -0.3347,0 -0.66938,0.07153 -1.00408,0.214974 -0.3347,0.143443 -0.59784,0.335054 -0.7891,0.574125 -0.3347,-0.02391 -0.6571,0.05989 -0.9679,0.251148 -0.31079,0.16735 -0.50188,0.346178 -0.5736,0.537435 -0.16735,-0.07172 -0.37071,-0.107487 -0.60979,-0.107487 -0.11954,0 -0.29888,0.02402 -0.53795,0.07183 -0.26298,-0.215164 -0.55013,-0.322461 -0.86093,-0.322461 -0.21516,0 -0.40626,0.04752 -0.57361,0.143144 -0.0239,-0.09563 -0.11945,-0.179426 -0.2868,-0.251148 -0.16735,-0.07172 -0.35844,-0.107487 -0.57361,-0.107487 -0.28688,0 -0.4785,0.04803 -0.57412,0.143661 -0.0478,-0.215164 -0.19088,-0.430275 -0.42995,-0.645439 -0.21516,-0.215164 -0.45429,-0.322978 -0.71727,-0.322978 -0.0956,-0.382513 -0.26322,-0.657406 -0.5023,-0.824755 -0.23904,-0.16735 -0.37035,-0.262898 -0.39429,-0.286805 0.0956,-0.525956 -0.0837,-1.015959 -0.53795,-1.470194 0.26298,-0.3347 0.35853,-0.848719 0.28681,-1.542025 0.14344,0.07172 0.41833,0.107487 0.82475,0.107487 0.74112,0 1.23112,-0.107814 1.4702,-0.322978 0.26298,0.119536 0.59765,0.179318 1.00407,0.179318 0.43033,0 0.81303,-0.08328 1.14773,-0.250631 0.3108,0.143443 0.65722,0.214974 1.03973,0.214974 0.52596,0 0.90866,-0.09555 1.14774,-0.286804 0.21516,0.239071 0.60961,0.358634 1.18339,0.358634 0.3347,0 0.66937,-0.04803 1.00407,-0.14366 0.3347,-0.09563 0.59785,-0.202926 0.7891,-0.322461 0.3347,0.143442 0.65711,0.214974 0.9679,0.214974 0.38251,0 0.72945,-0.09555 1.04025,-0.286805 0.33469,-0.191257 0.59783,-0.454399 0.78909,-0.789099 0.71722,-0.286885 1.07539,-0.83667 1.07539,-1.649511 0,-0.478143 -0.11904,-0.94413 -0.35812,-1.398365 -0.21516,-0.454235 -0.45429,-0.741394 -0.71727,-0.860929 0.0478,-0.286885 0.0713,-0.501995 0.0713,-0.645439 0,-0.621584 -0.17883,-1.15962 -0.53744,-1.613855 -0.3347,-0.478142 -0.74142,-0.824566 -1.21956,-1.039729 -0.47815,-0.239072 -0.8726,-0.322869 -1.18339,-0.251148 -0.0717,-0.502049 -0.28683,-0.848473 -0.64544,-1.03973 -0.35861,-0.191258 -0.80109,-0.310821 -1.32705,-0.358634 0.0239,-0.143443 -0.0716,-0.263007 -0.2868,-0.358635 -0.19126,-0.119535 -0.43039,-0.179317 -0.71727,-0.179317 l -0.32246,0.03566 c -0.19126,-0.04781 -0.34659,-0.07183 -0.46613,-0.07183 z m -64.69269,0.21549 c -0.50205,0 -0.90877,0.107298 -1.21956,0.322461 -0.14344,-0.191257 -0.38257,-0.286804 -0.71727,-0.286804 -0.43033,0 -0.77675,0.143579 -1.03973,0.430465 -0.19126,-0.04781 -0.33484,-0.07183 -0.43046,-0.07183 -0.43033,0 -0.89632,0.119563 -1.398368,0.358634 -0.50205,0.215164 -0.836724,0.454291 -1.004074,0.717269 -0.191256,-0.04781 -0.454399,0.02372 -0.789099,0.214974 -0.310792,0.16735 -0.597434,0.418226 -0.860412,0.752925 -0.262979,0.310793 -0.430574,0.645983 -0.502295,1.00459 -0.286885,0.286885 -0.430465,0.645059 -0.430465,1.075387 0,0.286885 0.09555,0.585794 0.286804,0.896586 0.262979,0.406421 0.609919,0.609782 1.040247,0.609782 0.382514,0 0.752954,-0.14358 1.11156,-0.430465 0.382514,-0.286885 0.681422,-0.621559 0.896586,-1.004073 0.478146,0.04781 0.896616,-0.167296 1.255226,-0.645439 0.40642,0 0.77686,-0.119563 1.11156,-0.358634 0.11953,0.02391 0.38267,-0.02361 0.78909,-0.143144 0.23908,0.143443 0.48995,0.214974 0.75293,0.214974 0.38251,0 0.71719,-0.107814 1.00407,-0.322977 0.14345,0.382513 0.40659,0.657406 0.7891,0.824755 0.0478,0.286886 0.20315,0.60981 0.46612,0.968417 0.28689,0.334699 0.55003,0.53806 0.7891,0.609782 -0.16735,0.16735 -0.25114,0.453991 -0.25114,0.860412 v 0.107487 c -0.14345,-0.07172 -0.28703,-0.107487 -0.43047,-0.107487 -0.45423,0 -0.84869,0.215111 -1.18339,0.645439 -0.0478,-0.04781 -0.14336,-0.08358 -0.2868,-0.107487 -0.14345,-0.02391 -0.28703,-0.03566 -0.43047,-0.03566 -0.19126,0 -0.31082,0.02402 -0.35863,0.07183 -0.21517,-0.09563 -0.46604,-0.14366 -0.75293,-0.14366 -0.26298,0 -0.52612,0.04803 -0.7891,0.14366 -0.26298,0.07172 -0.46582,0.155003 -0.60926,0.250631 -0.50205,-0.04781 -1.01607,2.18e-4 -1.54203,0.143661 -0.525954,0.143442 -0.860629,0.418335 -1.004071,0.824755 -0.525957,0.09563 -0.968445,0.239209 -1.327051,0.430465 -0.3347,0.191257 -0.633608,0.561697 -0.896586,1.11156 -0.669399,0.549864 -1.004073,1.17118 -1.004073,1.864486 0,0.119536 0.04803,0.394944 0.14366,0.825273 -0.119535,0.239071 -0.179317,0.513963 -0.179317,0.824755 0,0.454235 0.107297,0.753144 0.322461,0.896586 -0.02391,0.143443 -0.03566,0.346287 -0.03566,0.609266 0,1.051913 0.454238,1.840824 1.362708,2.36678 0.502049,0.836749 1.218913,1.255221 2.15129,1.255221 0.239071,0 0.418416,-0.01175 0.537959,-0.03566 0.23907,0.16735 0.50221,0.250631 0.78909,0.250631 0.3108,0 0.63372,-0.09555 0.96842,-0.286804 0.54986,0.119535 0.98009,0.179317 1.29088,0.179317 0.43033,0 0.95609,-0.09555 1.57768,-0.286804 0.0956,0.02391 0.23921,0.03617 0.43046,0.03617 0.38252,0 0.88479,-0.131829 1.50637,-0.394808 0.19126,0.191257 0.44214,0.286804 0.75293,0.286804 0.31079,0 0.59743,-0.08328 0.86041,-0.25063 0.26298,-0.191258 0.44232,-0.4544 0.53795,-0.7891 0.40642,-0.334699 0.60978,-0.753171 0.60978,-1.25522 0,-0.215164 -0.024,-0.370493 -0.0718,-0.466121 0.23908,-0.310793 0.35864,-0.716998 0.35864,-1.219048 0,-0.382513 -0.0475,-0.705437 -0.14315,-0.968416 0.26298,-0.286885 0.3943,-0.609809 0.3943,-0.968416 0,-0.191257 -0.0117,-0.346586 -0.0357,-0.466122 -0.0239,-0.143442 -0.0479,-0.263005 -0.0718,-0.358634 0.0717,-0.262978 0.10749,-0.430056 0.10749,-0.501778 0,-0.119535 -0.0838,-0.358663 -0.25115,-0.717269 0.0478,-0.286886 0.0718,-0.526012 0.0718,-0.717269 0,-0.454236 -0.0598,-0.920739 -0.17932,-1.398881 -0.11953,-0.478142 -0.26311,-0.836315 -0.43046,-1.075387 0.19125,-0.334699 0.2868,-0.777186 0.2868,-1.32705 0,-0.430328 -0.0715,-0.8488 -0.21497,-1.255221 -0.14345,-0.430328 -0.37031,-0.800768 -0.6811,-1.11156 -0.0478,-0.525956 -0.19139,-0.932162 -0.43046,-1.219047 -0.21517,-0.310792 -0.53809,-0.538169 -0.96842,-0.681612 -0.0717,-0.478142 -0.34661,-0.860849 -0.82476,-1.147734 -0.45423,-0.286885 -0.98,-0.429948 -1.57768,-0.429948 z m 65.19447,2.940389 c 0.0239,0.215164 0.215,0.430275 0.57361,0.645439 0.38251,0.191257 0.6339,0.251039 0.75344,0.179317 0.0956,0.119535 0.22695,0.31063 0.39429,0.573609 0.19126,0.262978 0.39463,0.502105 0.60979,0.717269 0.23907,0.191256 0.52571,0.275054 0.86041,0.251147 -0.0717,0.09563 -0.10749,0.239208 -0.10749,0.430465 0,0.286885 0.0715,0.597543 0.21498,0.932243 0.16735,0.310792 0.34669,0.514154 0.53795,0.609781 -0.28688,-0.09563 -0.69309,-0.14366 -1.21905,-0.14366 -0.93238,0 -1.51793,0.167596 -1.757,0.502295 -0.43033,-0.358606 -0.9326,-0.537952 -1.50637,-0.537952 -0.6933,0 -1.32688,0.179346 -1.90066,0.537952 -0.11953,-0.09563 -0.33464,-0.179426 -0.64543,-0.251148 -0.28689,-0.07172 -0.59755,-0.107487 -0.93225,-0.107487 -0.57377,0 -1.028,0.119564 -1.3627,0.358635 l -0.14367,-0.03617 c 0.26298,-0.215164 0.51386,-0.525822 0.75293,-0.932242 0.26299,-0.406421 0.41884,-0.776861 0.46664,-1.111561 0.40642,-0.143442 0.7411,-0.358552 1.00407,-0.645438 0.26298,-0.286885 0.51385,-0.657842 0.75293,-1.112077 0.28688,0.04781 0.56178,0.01205 0.82475,-0.107487 0.26298,-0.119536 0.43058,-0.239099 0.5023,-0.358634 0.16735,0.02391 0.40596,4.07e-4 0.71675,-0.07131 0.31079,-0.09563 0.51416,-0.203442 0.60978,-0.322978 z m -64.40588,6.526734 c 0.14344,0.16735 0.32278,0.251147 0.53795,0.251147 0.23907,0 0.45418,-0.05978 0.64544,-0.179317 -0.0956,0.215165 -0.14315,0.47779 -0.14315,0.788582 0,0.454235 0.13132,0.848691 0.39429,1.183391 -0.23907,0.239071 -0.35863,0.610027 -0.35863,1.112077 0,0.239071 0.0358,0.477681 0.10749,0.716752 0.0717,0.239071 0.15552,0.430682 0.25114,0.574125 -0.21516,0.262978 -0.34647,0.478089 -0.39429,0.645438 -0.54986,0.07172 -0.93257,0.322598 -1.14773,0.752926 -0.35861,0 -0.76481,0.05978 -1.21905,0.179317 -0.43033,0.119536 -0.7415,0.274865 -0.93276,0.466122 -0.26298,-0.262978 -0.62115,-0.394291 -1.07538,-0.394291 -0.28689,0 -0.56178,0.04803 -0.82476,0.14366 -0.16735,-0.239071 -0.51429,-0.358634 -1.04025,-0.358634 -0.28688,0 -0.526009,0.03576 -0.717266,0.107487 -0.02391,-0.119536 -0.131204,-0.22735 -0.322461,-0.322978 -0.16735,-0.119535 -0.299179,-0.179317 -0.394808,-0.179317 0.09563,-0.286885 0.14366,-0.526012 0.14366,-0.717269 0,-0.262979 -0.143579,-0.537871 -0.430464,-0.824756 0.215164,-0.286885 0.322977,-0.609293 0.322977,-0.9679 0,-0.215163 -0.05978,-0.406775 -0.179317,-0.574125 0.239071,0.04781 0.465932,-0.01197 0.681096,-0.179317 0.239071,-0.16735 0.406666,-0.382461 0.502295,-0.645439 0.406418,0 0.717078,-0.05978 0.932238,-0.179317 0.23908,-0.119535 0.43017,-0.346396 0.57361,-0.681095 0.28689,0.143442 0.60981,0.03563 0.96842,-0.322978 0.23907,0.09563 0.41842,0.14366 0.53795,0.14366 0.38252,0 0.70544,-0.131829 0.96842,-0.394807 0.23907,0.119535 0.47768,0.179317 0.71675,0.179317 0.38251,0 0.68142,-0.107297 0.89659,-0.322461 z" /><path
         d="m 20.267735,97.91517 -0.293698,-3.773015 c -0.691719,-2.672588 -2.004425,-4.975734 -3.93815,-6.909443 -1.933658,-1.933708 -4.236784,-3.246424 -6.9093657,-3.938149 0.628829,-0.15734 1.2498147,-0.275226 1.8629007,-0.353657 0.613143,-0.07843 1.24986,-0.117648 1.910106,-0.117648 4.213277,0 7.781972,1.462046 10.706072,4.386136 2.924134,2.924142 4.386196,6.492828 4.386196,10.70606 z m 11.497147,0 c 0,-1.320559 -0.141411,-2.633279 -0.424233,-3.938153 -0.282833,-1.304823 -0.691584,-2.554651 -1.226263,-3.749484 1.32056,-2.232367 3.120616,-4.024563 5.400201,-5.376595 2.279518,-1.351975 4.802744,-2.027965 7.569691,-2.027965 0.660257,0 1.296963,0.03921 1.910117,0.117647 0.613098,0.07843 1.234061,0.196317 1.86289,0.353658 -2.672582,0.691724 -4.967865,2.004441 -6.885836,3.938149 -1.917983,1.93366 -3.238532,4.236783 -3.961692,6.909365 l -0.736378,3.773094 z M 27.991796,86.643182 c 0,-2.04375 0.377311,-3.961722 1.13191,-5.753917 0.754622,-1.792201 1.792212,-3.372181 3.112761,-4.739941 1.32056,-1.367713 2.869098,-2.46032 4.645613,-3.277821 1.77647,-0.817503 3.670868,-1.257696 5.683204,-1.320582 -1.760795,1.100474 -3.301456,2.452479 -4.622016,4.056012 -1.320605,1.603576 -2.342488,3.395798 -3.065624,5.376661 -1.383451,0.660258 -2.649009,1.469892 -3.796695,2.428901 -1.147619,0.958962 -2.177333,2.03586 -3.089153,3.230687 z m -3.442879,-3.537283 c -0.377436,-0.282831 -0.754735,-0.550094 -1.131922,-0.801794 -0.377424,-0.251455 -0.770454,-0.502984 -1.179115,-0.754583 0,-0.188715 0.01664,-0.385272 0.0498,-0.589669 0.03327,-0.2044 0.04991,-0.400957 0.04991,-0.589672 0,-2.389613 -0.377311,-4.65345 -1.131922,-6.79151 -0.754599,-2.138059 -1.823641,-4.087476 -3.20708,-5.848253 2.075159,0.848922 3.875226,2.067306 5.400178,3.655155 1.524964,1.587842 2.69619,3.419352 3.513692,5.494525 -0.565995,0.943278 -1.053379,1.941552 -1.462118,2.99482 -0.408796,1.053321 -0.707485,2.130217 -0.896033,3.230693 z"
         id="path1"
         style="fill:#008000;stroke-width:0.0471632"
         sodipodi:nodetypes="ccscssscccscssscsccccssscscscccccsscscscc" /></g></g></svg>
